Coordinates
version=1
nRows=12
nColumns=42
inDegrees=yes

Units are S.I. units (second, meters, Newtons, ...)
If the header above contains a line with 'inDegrees', this indicates whether rotational values are in degrees (yes) or radians (no).

endheader
time	pelvis_tilt	pelvis_list	pelvis_rotation	pelvis_tx	pelvis_ty	pelvis_tz	hip_flexion_r	hip_adduction_r	hip_rotation_r	knee_angle_r	knee_adduction_r	knee_angle_r_beta	ankle_angle_r	subtalar_angle_r	mtp_angle_r	hip_flexion_l	hip_adduction_l	hip_rotation_l	knee_angle_l	knee_adduction_l	knee_angle_l_beta	ankle_angle_l	subtalar_angle_l	mtp_angle_l	lumbar_extension	lumbar_bending	lumbar_rotation	arm_flex_r	arm_add_r	arm_rot_r	elbow_flex_r	pro_sup_r	wrist_flex_r	wrist_dev_r	arm_flex_l	arm_add_l	arm_rot_l	elbow_flex_l	pro_sup_l	wrist_flex_l	wrist_dev_l
      0.60000000	     15.52732080	      0.15242628	      6.85094615	     -0.47459988	      0.95544633	     -0.14164132	     10.23941467	      1.59913025	    -14.64643974	     30.91689315	     -2.28002669	      0.53960158	      4.17864644	     -0.68475032	     -8.22573786	    -26.12837661	     -4.60445595	     -5.64682821	     42.58842484	     -1.86273006	      0.74330824	     -5.45458071	     14.82164195	     -8.22573786	    -34.59886758	      7.04676290	      2.33444492	     -4.06087488	    -17.38884244	    -13.18605310	     59.23750075	     90.00000001	      0.00000000	      0.00000000	      4.27718079	    -18.40689213	      2.02686987	     70.88715050	     90.00000001	      0.00000000	      0.00000000
      0.61000000	     15.61213601	     -0.12995754	      6.79400809	     -0.46005005	      0.95733933	     -0.14046638	      9.21482779	      2.12395874	    -14.80975043	     30.93273610	     -2.31720581	      0.53987809	      5.42190021	     -0.12655734	     -8.21028465	    -24.52772184	     -4.88440902	     -4.71705304	     46.16057108	     -1.93901644	      0.80565395	     -6.63351143	     12.92810592	     -8.21028465	    -34.73750529	      7.34185179	      2.76101145	     -3.78414430	    -17.50251672	    -13.07516840	     59.36120954	     90.00000001	      0.00000000	      0.00000000	      3.67625250	    -18.15704566	      1.79292052	     70.41770162	     90.00000001	      0.00000000	      0.00000000
      0.62000000	     15.41782271	     -0.38957538	      6.64154700	     -0.44587317	      0.95890868	     -0.13903936	      8.63689337	      2.68125463	    -15.76280966	     31.03980617	     -3.07645829	      0.54174682	      6.54185645	      1.54379422	     -8.17959922	    -22.53760184	     -5.11134795	     -3.19795613	     49.75798688	     -1.29895863	      0.86844070	     -7.23043909	      9.36600683	     -8.17959922	    -34.60907030	      7.50071522	      3.24141644	     -3.44857525	    -17.61654541	    -12.83964351	     59.29599109	     90.00000001	      0.00000000	      0.00000000	      3.14169407	    -17.83506507	      1.47646959	     69.80653396	     90.00000001	      0.00000000	      0.00000000
      0.63000000	     15.39096609	     -0.55219442	      6.57517029	     -0.43189482	      0.96092559	     -0.13782313	      7.63036413	      3.03591227	    -16.44338667	     30.77550376	     -3.35203825	      0.53713387	      7.82215840	      3.00466690	     -8.15040384	    -20.64402476	     -5.20400112	     -2.37430259	     53.02141518	     -1.32219881	      0.92539827	     -7.38418530	      7.42910729	     -8.15040384	    -34.68794064	      7.61291756	      3.60136631	     -3.12170421	    -17.71845526	    -12.65425703	     59.47155894	     90.00000001	      0.00000000	      0.00000000	      2.67010443	    -17.62896063	      1.31733784	     69.18462563	     90.00000001	      0.00000000	      0.00000000
      0.64000000	     15.37185481	     -0.72316352	      6.45403130	     -0.41808880	      0.96308374	     -0.13645360	      6.54754754	      3.43031395	    -16.93382941	     30.34046076	     -3.56134979	      0.52954094	      8.83016417	      4.24227999	     -8.12339721	    -18.72985812	     -5.28128677	     -1.93639403	     55.96475609	     -1.53463300	      0.97676926	     -7.01329943	      6.02418713	     -8.12339721	    -34.79428397	      7.68155829	      4.00350811	     -2.79196733	    -17.83054742	    -12.42528071	     59.68700134	     90.00000001	      0.00000000	      0.00000000	      2.25383049	    -17.43892816	      1.18884221	     68.48791424	     90.00000001	      0.00000000	      0.00000000
      0.65000000	     15.52528087	     -0.72138104	      6.28331643	     -0.40440964	      0.96577606	     -0.13515144	      5.10441735	      3.61103366	    -16.88032536	     29.67409085	     -3.37511921	      0.51791059	      9.60707705	      4.78174248	     -8.11236269	    -17.06036179	     -5.09797585	     -1.91964731	     58.33372560	     -2.13421527	      1.01811558	     -6.30392021	      5.24818700	     -8.11236269	    -35.10959470	      7.56256378	      4.33249231	     -2.42819034	    -17.90704893	    -12.22588823	     59.98276377	     90.00000001	      0.00000000	      0.00000000	      1.88710572	    -17.31153505	      1.14186291	     67.75167936	     90.00000001	      0.00000000	      0.00000000
      0.66000000	     15.57383568	     -0.84881586	      6.09674556	     -0.39096729	      0.96830058	     -0.13365052	      3.79367735	      3.97300630	    -16.79901307	     28.91566986	     -3.28793532	      0.50467364	     10.24349575	      5.42916551	     -8.10050912	    -15.21795250	     -5.12954117	     -2.04999882	     60.43371938	     -2.57916997	      1.05476738	     -5.29393332	      4.36950233	     -8.10050912	    -35.31985399	      7.52222593	      4.73395908	     -2.09340229	    -18.03908720	    -11.93304577	     60.29848327	     90.00000001	      0.00000000	      0.00000000	      1.57605368	    -17.15878574	      1.06691788	     66.90878056	     90.00000001	      0.00000000	      0.00000000
      0.67000000	     15.61433548	     -1.03019914	      5.84835614	     -0.37761689	      0.97083378	     -0.13191970	      2.49581130	      4.44416594	    -16.63298769	     28.09111982	     -3.28616208	      0.49028253	     10.69997239	      6.08096773	     -8.08395917	    -13.38627036	     -5.25721108	     -2.20955775	     62.12678668	     -2.85349984	      1.08431698	     -4.16740261	      3.61787191	     -8.08395917	    -35.52322156	      7.47356317	      5.20159107	     -1.76294476	    -18.19132229	    -11.56929119	     60.66553758	     90.00000001	      0.00000000	      0.00000000	      1.29318710	    -17.00248882	      0.98915250	     66.01597802	     90.00000001	      0.00000000	      0.00000000
      0.68000000	     15.70634562	     -0.82669810	      5.56225763	     -0.36455398	      0.97358288	     -0.13031172	      1.11341389	      4.43716443	    -16.37197657	     27.32328500	     -3.17994226	      0.47688129	     11.02808590	      6.34949754	     -8.07603173	    -11.68323784	     -4.86614184	     -2.38122640	     63.22643767	     -3.24171208	      1.10350951	     -3.25958468	      3.25672053	     -8.07603173	    -35.83288270	      7.01144976	      5.43804885	     -1.35614583	    -18.19010960	    -11.33960660	     61.05791788	     90.00000001	      0.00000000	      0.00000000	      1.03286979	    -17.00765746	      0.96470309	     65.26864963	     90.00000001	      0.00000000	      0.00000000
      0.69000000	     15.72568966	     -0.73450625	      5.29965696	     -0.35157222	      0.97615398	     -0.12871915	     -0.26194032	      4.55523117	    -15.98417636	     26.33473148	     -3.00483734	      0.45962777	     11.40659820	      6.70245533	     -8.06795644	     -9.89752209	     -4.61110939	     -2.69353223	     63.97707568	     -3.64357000	      1.11661062	     -2.03542299	      2.79097677	     -8.06795644	    -36.05129696	      6.66920195	      5.67652280	     -1.01587722	    -18.25002457	    -11.00649180	     61.51000418	     90.00000001	      0.00000000	      0.00000000	      0.79769540	    -16.95987730	      0.93143146	     64.32527417	     90.00000001	      0.00000000	      0.00000000
      0.70000000	     15.91829988	     -1.08029611	      4.90498447	     -0.33834318	      0.97886932	     -0.12683211	     -1.96908607	      5.26039155	    -15.20672789	     24.88624685	     -2.83325139	      0.43434695	     11.47649779	      7.08009067	     -8.04553410	     -8.41017595	     -4.92692653	     -3.43118628	     64.24825795	     -4.05484271	      1.12134364	     -0.47839155	      2.81424587	     -8.04553410	    -36.39234813	      6.72336725	      6.27890193	     -0.76966115	    -18.58340855	    -10.44429920	     62.12942524	     90.00000001	      0.00000000	      0.00000000	      0.55917752	    -16.73705864	      0.86842092	     63.21201757	     90.00000001	      0.00000000	      0.00000000
      0.71000000	     15.84311963	     -0.96064961	      4.58023487	     -0.32559038	      0.98109725	     -0.12528098	     -3.25047453	      5.31716608	    -14.84962816	     23.82903805	     -2.70480953	      0.41589517	     11.73816661	      7.39009710	     -8.03512467	     -6.62644019	     -4.58166886	     -3.79086780	     64.18003379	     -4.40409240	      1.12015290	      0.75347347	      2.58459342	     -8.03512467	    -36.50453290	      6.32544774	      6.47573547	     -0.41187614	    -18.67314855	    -10.09251446	     62.63287022	     90.00000001	      0.00000000	      0.00000000	      0.33149678	    -16.67484662	      0.84159554	     62.20259407	     90.00000001	      0.00000000	      0.00000000
